<svg id="Layer_1" data-name="Layer 1" fill="#cacbca" xmlns="http://www.w3.org/2000/svg" xmlns:xlink="http://www.w3.org/1999/xlink" viewBox="0 0 41.57 76.9"><defs><style>.cls-1{fill:none;}.cls-2{clip-path:url(#clip-path);}</style><clipPath id="clip-path" transform="translate(-285 -357.9)"><rect class="cls-1" x="285" y="358" width="42" height="76.9"/></clipPath></defs><title>facebook</title><g class="cls-2"><path d="M325,357.92l-10,0c-11.2,0-18.45,7.43-18.45,18.93v8.72h-10a1.57,1.57,0,0,0-1.57,1.57v12.65a1.56,1.56,0,0,0,1.57,1.56h10v31.9a1.57,1.57,0,0,0,1.57,1.57h13.08a1.57,1.57,0,0,0,1.57-1.57v-31.9h11.72a1.56,1.56,0,0,0,1.57-1.56V387.12a1.61,1.61,0,0,0-.46-1.11,1.57,1.57,0,0,0-1.11-.46H312.81v-7.39c0-3.56.85-5.36,5.48-5.36H325a1.56,1.56,0,0,0,1.56-1.56V359.49a1.56,1.56,0,0,0-1.56-1.57Zm0,0" transform="translate(-285 -357.9)"/></g></svg>