<svg id="Capa_1" data-name="Capa 1" fill="#cacbca" xmlns="http://www.w3.org/2000/svg" viewBox="0 0 512 512"><title>instagram</title><path d="M363.27,512H148.73C66.72,512,0,445.28,0,363.27V148.73C0,66.72,66.72,0,148.73,0H363.27C445.28,0,512,66.72,512,148.73V363.27C512,445.28,445.28,512,363.27,512ZM148.73,40A108.86,108.86,0,0,0,40,148.73V363.27A108.85,108.85,0,0,0,148.73,472H363.27A108.85,108.85,0,0,0,472,363.27V148.73A108.85,108.85,0,0,0,363.27,40Z"/><path d="M256,394c-76.09,0-138-61.91-138-138s61.91-138,138-138,138,61.91,138,138S332.09,394,256,394Zm0-236a98,98,0,1,0,98,98A98.11,98.11,0,0,0,256,158Z"/><circle cx="396" cy="116" r="20"/></svg>