<?xml version="1.0" encoding="iso-8859-1"?>
<!-- Generator: Adobe Illustrator 19.0.0, SVG Export Plug-In . SVG Version: 6.00 Build 0)  -->
<svg version="1.1" fill="#cacbca" xmlns="http://www.w3.org/2000/svg" xmlns:xlink="http://www.w3.org/1999/xlink" viewBox="0 0 512.003 512.003" >
	<g>
		<g>
			<path d="M292.426,0.963c-3.84-1.728-8.299-1.109-11.435,1.685L113.353,149.336H32.009c-17.643,0-32,14.357-32,32V330.67
				c0,17.643,14.357,32,32,32h81.344l167.637,146.688c1.984,1.749,4.48,2.645,7.019,2.645c1.493,0,3.008-0.32,4.416-0.96
				c3.819-1.728,6.251-5.525,6.251-9.707V10.67C298.676,6.488,296.244,2.691,292.426,0.963z M277.343,477.827L124.361,343.982
				c-1.941-1.707-4.437-2.645-7.019-2.645H32.009c-5.867,0-10.667-4.8-10.667-10.667V181.336c0-5.867,4.8-10.667,10.667-10.667
				h85.333c2.581,0,5.077-0.939,7.019-2.645L277.343,34.179V477.827z"/>
		</g>
	</g>
</svg>
