<svg id="Layer_1" data-name="Layer 1" fill="#cacbca" xmlns="http://www.w3.org/2000/svg" viewBox="0 0 12.8 10.4"><title>twitter</title><path d="M311.8,392.23a5.45,5.45,0,0,1-1.51.42,2.64,2.64,0,0,0,1.16-1.46,5.36,5.36,0,0,1-1.67.64,2.62,2.62,0,0,0-4.54,1.8,2.88,2.88,0,0,0,.06.59,7.46,7.46,0,0,1-5.41-2.74,2.59,2.59,0,0,0-.36,1.32A2.61,2.61,0,0,0,300.7,395a2.6,2.6,0,0,1-1.18-.32v0a2.64,2.64,0,0,0,2.1,2.58,3.1,3.1,0,0,1-.69.09,2.83,2.83,0,0,1-.5-.05,2.64,2.64,0,0,0,2.46,1.82,5.26,5.26,0,0,1-3.27,1.12c-.21,0-.41,0-.62,0a7.47,7.47,0,0,0,11.5-6.29v-.34a5.3,5.3,0,0,0,1.31-1.36Zm0,0" transform="translate(-299 -391)"/></svg>